<?xml version="1.0" encoding="utf-8" standalone="no"?>
<!DOCTYPE svg PUBLIC "-//W3C//DTD SVG 1.1//EN"
  "http://www.w3.org/Graphics/SVG/1.1/DTD/svg11.dtd">
<!-- Created with matplotlib (http://matplotlib.org/) -->
<svg height="360pt" version="1.1" viewBox="0 0 864 360" width="864pt" xmlns="http://www.w3.org/2000/svg" xmlns:xlink="http://www.w3.org/1999/xlink">
 <defs>
  <style type="text/css">
*{stroke-linecap:butt;stroke-linejoin:round;}
  </style>
 </defs>
 <g id="figure_1">
  <g id="patch_1">
   <path d="
M0 360
L864 360
L864 0
L0 0
z
" style="fill:#ffffff;"/>
  </g>
  <g id="axes_1">
   <g id="patch_2">
    <path d="
M108 306
L777.6 306
L777.6 36
L108 36
z
" style="fill:#ffffff;"/>
   </g>
   <g id="line2d_1">
    <path clip-path="url(#pf8ef257490)" d="
M108 304.631
L108.447 297.289
L109.116 278.941
L112.019 187.523
L112.689 174.787
L113.135 168.992
L113.582 165.471
L113.805 164.508
L114.028 164.083
L114.252 164.209
L114.475 164.857
L114.922 167.588
L115.368 172.099
L116.038 181.689
L116.931 198.636
L118.494 233.902
L119.61 257.297
L120.28 266.856
L120.95 273.777
L121.62 278.862
L122.29 282.564
L122.959 285.27
L123.629 287.237
L124.522 289.013
L124.746 289.386
L124.969 289.523
L125.192 289.295
L125.639 288.042
L126.085 285.796
L126.755 280.952
L127.648 272.562
L130.997 238.396
L131.667 233.719
L132.337 230.34
L132.783 228.931
L133.23 228.078
L133.677 227.919
L133.9 228.049
L134.346 228.785
L134.793 230.057
L135.463 232.925
L136.133 236.659
L137.472 245.904
L139.705 261.564
L140.598 266.335
L141.268 268.961
L141.938 270.702
L142.384 271.33
L142.831 271.533
L143.277 271.297
L143.724 270.7
L144.394 269.123
L145.287 265.917
L146.18 261.873
L149.082 247.968
L149.976 244.892
L150.645 243.27
L151.315 242.301
L151.762 242.021
L152.208 242.063
L152.655 242.322
L153.325 243.242
L153.995 244.681
L154.888 247.193
L158.683 259.237
L159.576 261.007
L160.246 261.843
L160.916 262.235
L161.363 262.22
L162.032 261.901
L162.702 261.191
L163.372 260.151
L164.488 257.84
L167.391 251.331
L168.507 249.591
L169.177 248.923
L169.847 248.563
L170.517 248.504
L170.963 248.618
L171.41 248.859
L172.08 249.433
L172.75 250.216
L173.643 251.488
L176.545 255.91
L177.438 256.897
L178.108 257.435
L178.778 257.792
L179.448 257.922
L180.341 257.784
L181.681 256.946
L182.35 256.358
L184.137 254.464
L185.476 253.053
L186.593 252.19
L187.039 251.911
L187.709 251.61
L189.272 251.514
L190.388 251.879
L195.747 255.42
L197.756 255.906
L198.873 255.779
L199.766 255.534
L200.882 255.09
L201.775 254.622
L204.901 253.199
L206.687 252.874
L208.697 253.061
L210.26 253.492
L212.716 254.345
L215.395 254.908
L216.511 254.926
L217.628 254.831
L219.86 254.406
L222.093 254.003
L222.986 254.257
L223.656 254.765
L224.326 255.575
L225.219 257.235
L226.112 259.501
L227.675 264.646
L231.024 276.418
L232.141 279.318
L233.034 281.028
L233.927 282.142
L234.82 282.704
L235.49 282.775
L236.16 282.604
L236.829 282.281
L237.946 281.445
L240.848 279.491
L241.741 279.363
L242.411 279.482
L243.081 279.763
L243.751 280.244
L245.09 281.707
L246.43 283.592
L249.333 287.947
L250.896 289.758
L252.459 290.819
L252.905 291
L253.798 291.237
L255.584 291.09
L259.603 290.235
L260.273 290.203
L261.166 290.308
L262.506 290.701
L264.962 291.849
L269.204 292.396
L273 292.505
L274.116 292.478
L275.456 292.506
L276.572 292.489
L278.135 292.518
L278.805 292.5
L279.921 292.519
L281.484 292.495
L291.308 292.497
L292.201 292.48
L296.667 292.503
L298.453 292.48
L299.569 292.508
L300.686 292.478
L301.356 292.499
L355.388 292.489
L357.844 292.491
L359.63 292.508
L360.747 292.479
L361.863 292.512
L362.756 292.486
L366.552 292.504
L369.901 292.484
L396.247 292.487
L398.927 292.488
L399.82 292.513
L400.713 292.494
L401.606 292.521
L402.276 292.48
L402.946 292.499
L404.508 292.493
L408.751 292.482
L409.42 292.507
L411.43 292.492
L414.109 292.521
L415.226 292.478
L416.119 292.52
L417.012 292.48
L419.245 292.516
L420.361 292.481
L423.04 292.502
L479.082 292.495
L479.975 292.505
L480.868 292.498
L482.878 292.504
L485.557 292.518
L486.45 292.498
L494.488 292.483
L498.73 292.492
L499.623 292.517
L511.68 292.488
L512.35 292.494
L514.359 292.483
L515.253 292.501
L517.709 292.491
L539.589 292.502
L542.269 292.505
L543.162 292.488
L544.278 292.508
L546.511 292.522
L548.074 292.478
L549.414 292.487
L596.971 292.479
L615.056 292.496
L616.173 292.515
L622.424 292.507
L623.987 292.522
L624.657 292.496
L626.666 292.482
L627.336 292.504
L630.685 292.512
L631.355 292.514
L634.035 292.508
L634.704 292.487
L635.597 292.497
L639.393 292.481
L640.956 292.492
L642.519 292.502
L643.412 292.492
L644.975 292.495
L646.538 292.501
L648.324 292.522
L648.994 292.489
L650.557 292.496
L651.896 292.503
L655.692 292.506
L665.74 292.495
L666.633 292.502
L667.972 292.495
L670.205 292.498
L671.545 292.509
L673.554 292.482
L674.224 292.484
L677.35 292.489
L678.689 292.49
L680.252 292.332
L681.145 291.616
L682.039 290.636
L685.834 285.709
L686.727 284.825
L687.397 284.267
L688.737 283.585
L689.853 283.402
L690.3 283.376
L692.979 283.869
L694.988 284.263
L696.105 284.261
L697.668 283.889
L698.338 283.642
L701.24 281.69
L703.25 280.035
L705.259 278.596
L707.492 277.438
L711.064 276.466
L714.19 275.621
L715.976 274.824
L720.665 271.581
L723.791 269.167
L725.8 267.781
L727.14 266.949
L728.703 266.09
L729.819 265.453
L731.382 264.654
L734.061 263.171
L735.624 262.299
L736.518 261.747
L737.411 261.259
L740.09 259.781
L745.002 257.774
L746.788 257.304
L749.244 256.824
L752.593 256.252
L753.71 256.034
L756.166 255.644
L756.835 255.543
L759.738 255.095
L760.631 255.012
L774.474 254.4
L775.591 254.375
L776.707 254.296
L777.377 254.282
L777.6 254.295
L777.6 254.295" style="fill:none;stroke:#ff0000;stroke-linecap:square;"/>
   </g>
   <g id="line2d_2">
    <path clip-path="url(#pf8ef257490)" d="
M108 304.664
L108.447 297.275
L109.116 278.937
L112.019 187.5
L112.689 174.794
L113.135 169.003
L113.582 165.455
L113.805 164.53
L114.028 164.106
L114.252 164.247
L114.475 164.856
L114.922 167.589
L115.368 172.136
L116.038 181.784
L116.931 198.719
L118.717 239.334
L119.61 257.491
L120.28 266.972
L120.95 273.905
L121.62 278.955
L122.29 282.602
L122.959 285.293
L123.629 287.246
L124.299 288.664
L124.746 289.379
L124.969 289.561
L125.192 289.377
L125.639 288.134
L126.085 285.874
L126.755 281.07
L127.648 272.694
L130.997 238.486
L131.667 233.795
L132.337 230.462
L132.783 229.018
L133.23 228.194
L133.453 228.019
L133.9 228.132
L134.346 228.86
L135.016 230.99
L135.686 234.159
L136.579 239.673
L138.365 252.607
L139.482 260.34
L140.375 265.414
L141.268 269.105
L141.938 270.818
L142.384 271.435
L142.608 271.624
L143.054 271.618
L143.501 271.182
L143.947 270.388
L144.394 269.252
L145.287 266.045
L146.18 262.023
L149.082 248.093
L149.976 244.995
L150.645 243.387
L151.315 242.409
L151.762 242.156
L151.985 242.087
L152.432 242.239
L152.878 242.676
L153.548 243.756
L154.441 245.937
L156.227 251.776
L157.79 256.95
L158.907 259.861
L159.576 261.129
L160.469 262.134
L160.916 262.34
L161.586 262.29
L162.256 261.792
L162.926 260.993
L163.819 259.407
L165.828 254.826
L167.391 251.443
L168.061 250.304
L168.954 249.23
L169.4 248.87
L170.07 248.604
L170.517 248.561
L170.963 248.707
L171.633 249.086
L172.75 250.293
L173.419 251.212
L175.875 255.105
L176.992 256.563
L178.108 257.538
L178.778 257.903
L179.448 258.023
L180.341 257.849
L181.457 257.244
L183.69 255.02
L185.699 252.934
L186.593 252.245
L187.486 251.78
L188.379 251.587
L189.049 251.554
L190.388 251.963
L192.174 253.082
L195.3 255.274
L196.417 255.753
L197.756 255.963
L199.096 255.793
L200.436 255.359
L202.668 254.25
L204.678 253.358
L206.687 252.986
L207.804 253.008
L209.813 253.435
L213.832 254.748
L215.618 254.998
L216.958 254.98
L217.851 254.879
L219.414 254.607
L220.084 245.943
L220.977 237.545
L221.87 231.397
L222.763 226.872
L223.656 223.535
L224.326 221.78
L224.996 220.591
L225.442 220.045
L225.889 219.689
L226.559 219.48
L227.005 219.49
L227.675 219.732
L229.015 220.582
L229.685 221.047
L230.578 221.534
L231.471 221.747
L232.141 221.664
L233.034 221.166
L233.704 220.568
L234.597 219.326
L235.266 218.219
L236.829 214.986
L239.062 209.881
L240.178 207.568
L241.518 205.345
L242.634 204.011
L243.751 203.165
L244.644 202.792
L245.984 202.687
L246.877 202.745
L248.886 203.024
L250.003 203.077
L251.342 202.843
L253.128 202.035
L256.477 199.238
L259.157 196.855
L260.05 196.187
L262.952 194.853
L266.078 194.426
L272.33 194.035
L273 193.987
L273.67 193.943
L274.563 193.856
L275.679 193.849
L276.572 193.799
L278.135 193.842
L280.145 193.918
L282.154 194.126
L283.27 194.252
L284.61 194.451
L285.503 194.561
L286.173 194.706
L286.843 194.807
L288.182 195.016
L289.299 195.247
L291.755 195.731
L294.434 196.314
L295.774 196.597
L296.89 196.879
L298.453 197.252
L306.268 199.321
L311.18 200.864
L312.519 201.283
L318.771 203.543
L321.004 204.46
L322.12 204.916
L324.799 206.086
L327.702 207.436
L334.847 211.17
L336.41 212.099
L337.526 212.751
L338.866 213.602
L339.982 214.307
L345.341 217.987
L348.02 220.057
L348.913 220.725
L350.029 221.663
L352.039 223.354
L354.718 225.703
L355.835 226.742
L357.621 228.459
L362.756 233.713
L368.115 239.614
L372.803 244.99
L374.366 246.767
L376.376 249.086
L383.521 256.844
L384.86 258.181
L385.977 259.273
L387.316 260.145
L389.326 260.728
L390.665 260.938
L392.452 261.019
L393.345 261.085
L394.684 261.105
L399.82 261.135
L400.713 261.117
L408.527 261.116
L410.983 261.129
L413.439 261.132
L536.91 261.14
L549.19 261.146
L549.86 261.135
L557.451 261.147
L558.121 261.105
L559.014 261.135
L559.907 261.124
L567.499 261.133
L568.838 261.11
L569.732 261.143
L571.294 261.113
L572.634 261.148
L573.304 261.111
L573.974 261.138
L575.537 261.127
L579.332 261.108
L580.225 261.138
L589.38 261.147
L590.049 261.119
L592.059 261.117
L594.515 261.125
L599.874 261.139
L600.99 261.125
L602.553 261.128
L603.446 261.118
L604.339 261.138
L607.911 261.139
L609.921 261.108
L610.591 261.121
L611.93 261.145
L618.405 261.122
L619.745 261.114
L620.415 261.146
L621.085 261.131
L625.327 261.127
L626.89 261.135
L628.006 261.117
L629.123 261.124
L630.685 261.137
L637.384 261.127
L638.723 261.14
L640.286 261.119
L642.072 261.142
L642.966 261.119
L647.654 261.122
L665.963 261.112
L666.633 269.635
L667.302 275.81
L667.972 280.361
L668.642 283.628
L669.312 286.032
L669.982 287.77
L670.652 289.056
L671.321 290.013
L672.214 290.878
L673.554 291.645
L676.457 292.27
L678.243 292.422
L680.029 292.241
L681.369 291.053
L682.485 289.699
L685.611 285.647
L687.174 284.191
L688.737 283.376
L690.746 283.267
L692.309 283.576
L693.649 283.916
L694.988 284.177
L696.998 284.039
L698.338 283.573
L699.901 282.642
L705.929 278.175
L707.492 277.429
L708.385 277.098
L714.19 275.617
L716.423 274.591
L717.539 273.895
L718.432 273.284
L719.995 272.152
L724.461 268.696
L725.577 267.971
L726.247 267.505
L735.624 262.308
L738.527 260.672
L742.099 258.916
L743.662 258.268
L744.332 258.039
L746.565 257.418
L760.185 255.123
L761.524 255.021
L762.417 254.91
L763.31 254.871
L765.32 254.774
L767.553 254.717
L769.116 254.653
L770.902 254.611
L772.465 254.563
L774.474 254.47
L777.6 254.385
L777.6 254.385" style="fill:none;stroke:#ff0000;stroke-linecap:square;"/>
   </g>
   <g id="line2d_3">
    <path clip-path="url(#pf8ef257490)" d="
M108 304.657
L108.447 297.29
L109.116 278.919
L112.019 187.53
L112.689 174.775
L113.135 169.025
L113.582 165.455
L113.805 164.52
L114.028 164.108
L114.252 164.231
L114.475 164.834
L114.922 167.547
L115.368 172.063
L116.038 181.69
L116.931 198.572
L118.494 233.862
L119.61 257.282
L120.28 266.823
L120.95 273.766
L121.62 278.838
L122.29 282.542
L122.959 285.24
L123.852 287.755
L124.746 289.391
L124.969 289.5
L125.192 289.289
L125.415 288.797
L125.862 287.005
L126.532 282.694
L127.202 276.948
L128.541 262.907
L130.327 244.116
L131.221 236.652
L131.89 232.441
L132.56 229.56
L133.007 228.398
L133.453 227.913
L133.677 227.915
L133.9 228.052
L134.346 228.784
L134.793 230.064
L135.463 232.91
L136.356 238.041
L138.142 250.851
L139.705 261.555
L140.598 266.293
L141.268 268.931
L141.938 270.65
L142.384 271.293
L142.831 271.462
L143.054 271.423
L143.501 271.008
L144.17 269.692
L144.84 267.619
L145.733 263.967
L147.52 255.121
L148.859 248.874
L149.752 245.55
L150.422 243.731
L151.092 242.553
L151.539 242.106
L151.985 242.008
L152.208 242.015
L152.655 242.314
L153.325 243.227
L154.218 245.229
L155.334 248.589
L157.79 256.778
L158.683 259.196
L159.576 260.969
L160.246 261.79
L160.693 262.106
L161.139 262.228
L161.586 262.126
L162.032 261.881
L162.702 261.163
L163.819 259.256
L165.828 254.668
L167.168 251.733
L168.061 250.165
L168.731 249.307
L169.624 248.616
L170.07 248.469
L170.74 248.511
L171.41 248.827
L172.08 249.375
L172.973 250.454
L177.215 256.648
L177.885 257.265
L178.778 257.756
L179.225 257.853
L180.118 257.809
L180.787 257.529
L181.457 257.119
L183.69 254.909
L185.699 252.823
L186.816 251.999
L187.709 251.586
L188.602 251.466
L189.272 251.5
L190.165 251.745
L193.068 253.626
L193.961 254.299
L195.524 255.279
L197.31 255.805
L198.649 255.803
L200.436 255.25
L201.552 254.7
L202.892 254.04
L203.561 253.678
L205.794 252.97
L206.464 252.873
L207.134 252.846
L208.25 252.926
L209.813 253.309
L211.153 253.769
L213.162 254.425
L214.725 254.807
L216.735 254.869
L218.298 254.706
L219.414 254.477
L220.977 254.1
L221.87 254.008
L222.54 254.051
L223.21 254.377
L223.879 254.978
L224.326 255.55
L224.996 256.743
L225.889 258.881
L227.005 262.28
L228.791 268.705
L230.354 274.285
L231.694 278.222
L232.587 280.185
L233.257 281.302
L233.927 282.108
L234.82 282.661
L235.49 282.734
L235.936 282.678
L237.276 281.968
L240.178 279.77
L240.848 279.459
L241.518 279.315
L242.188 279.389
L243.081 279.724
L243.751 280.217
L244.867 281.373
L246.207 283.218
L248.216 286.319
L249.779 288.515
L251.342 290.1
L252.682 290.904
L253.798 291.209
L254.691 291.195
L256.031 290.997
L256.924 290.731
L258.487 290.364
L258.934 290.26
L261.39 290.339
L262.283 290.611
L263.622 291.232
L264.962 291.827
L267.641 292.326
L271.883 292.459
L272.553 292.462
L286.843 292.516
L290.192 292.51
L291.532 292.482
L292.201 292.507
L293.318 292.493
L294.434 292.494
L298.9 292.488
L299.793 292.502
L301.132 292.491
L301.802 292.505
L302.695 292.481
L303.365 292.491
L310.063 292.508
L311.18 292.492
L313.636 292.5
L315.422 292.49
L317.208 292.504
L318.771 292.483
L319.441 292.492
L320.334 292.499
L321.674 292.488
L323.013 292.509
L324.13 292.513
L326.586 292.504
L330.828 292.522
L331.498 292.509
L333.507 292.499
L337.526 292.493
L338.419 292.513
L339.982 292.504
L341.545 292.505
L342.438 292.478
L343.108 292.514
L344.224 292.513
L345.564 292.487
L346.904 292.495
L348.243 292.494
L349.583 292.499
L351.146 292.493
L353.825 292.508
L354.718 292.496
L359.184 292.512
L361.64 292.521
L366.552 292.478
L367.222 292.518
L368.338 292.508
L372.58 292.5
L373.473 292.483
L380.841 292.494
L382.181 292.487
L384.414 292.51
L385.307 292.505
L386.646 292.502
L389.996 292.485
L391.559 292.493
L394.238 292.497
L396.917 292.52
L398.48 292.492
L399.15 292.493
L401.383 292.488
L402.499 292.506
L404.285 292.521
L404.955 292.486
L407.188 292.52
L408.081 292.497
L409.197 292.517
L411.43 292.508
L412.993 292.508
L416.342 292.488
L418.575 292.5
L419.691 292.516
L421.701 292.502
L423.263 292.49
L426.836 292.511
L427.952 292.484
L429.292 292.504
L432.418 292.51
L680.029 292.418
L680.699 292.039
L681.815 290.91
L684.718 287.009
L686.727 284.778
L688.067 283.836
L688.96 283.514
L690.3 283.357
L691.416 283.484
L695.658 284.242
L696.998 284.072
L698.561 283.483
L700.794 282.005
L705.482 278.416
L707.492 277.385
L708.162 277.168
L710.171 276.609
L712.404 276.129
L713.744 275.729
L716.646 274.416
L718.432 273.282
L724.014 268.987
L729.819 265.435
L730.712 264.976
L736.964 261.498
L738.08 260.835
L738.974 260.346
L740.76 259.405
L742.099 258.828
L742.992 258.439
L746.788 257.295
L747.905 257.063
L748.798 256.874
L749.691 256.717
L751.03 256.474
L759.068 255.157
L759.738 255.074
L767.329 254.604
L768.669 254.594
L769.339 254.571
L777.6 254.249
L777.6 254.249" style="fill:none;stroke:#ff0000;stroke-linecap:square;"/>
   </g>
   <g id="line2d_4">
    <path clip-path="url(#pf8ef257490)" d="
M108 304.638
L108.447 297.285
L109.116 278.923
L112.019 187.508
L112.689 174.776
L113.135 168.992
L113.582 165.46
L113.805 164.516
L114.028 164.086
L114.252 164.2
L114.475 164.83
L114.922 167.582
L115.368 172.085
L116.038 181.701
L116.931 198.628
L118.494 233.97
L119.61 257.334
L120.28 266.861
L120.95 273.81
L121.62 278.889
L122.29 282.584
L122.959 285.249
L123.629 287.234
L124.522 289.038
L124.969 289.53
L125.192 289.295
L125.415 288.815
L125.862 287.058
L126.309 284.354
L126.978 279.052
L128.095 267.864
L130.551 242.12
L131.444 235.144
L132.114 231.345
L132.783 228.906
L133.23 228.089
L133.677 227.916
L134.123 228.375
L134.57 229.381
L135.016 230.908
L135.686 234.072
L136.579 239.583
L138.365 252.526
L139.705 261.61
L140.598 266.333
L141.268 268.994
L141.938 270.705
L142.384 271.332
L142.608 271.503
L143.054 271.497
L143.501 271.074
L144.17 269.742
L144.84 267.669
L145.733 264.014
L147.52 255.142
L149.082 247.959
L149.976 244.892
L150.645 243.315
L151.315 242.305
L151.762 242.045
L152.208 242.077
L152.655 242.362
L153.101 242.88
L153.995 244.674
L155.111 247.905
L158.683 259.216
L159.353 260.637
L160.023 261.607
L160.693 262.119
L161.139 262.247
L161.809 262.075
L162.479 261.457
L163.372 260.125
L164.488 257.834
L167.614 250.909
L168.731 249.342
L169.4 248.773
L170.07 248.502
L170.517 248.476
L171.187 248.7
L171.856 249.198
L172.75 250.194
L174.536 252.872
L175.429 254.327
L177.215 256.687
L178.331 257.572
L179.001 257.842
L179.448 257.913
L180.341 257.765
L181.457 257.119
L182.574 256.109
L183.69 254.927
L185.253 253.244
L186.369 252.313
L187.262 251.801
L187.932 251.543
L189.272 251.505
L189.942 251.69
L191.505 252.532
L195.747 255.377
L196.863 255.752
L197.98 255.851
L198.649 255.81
L199.766 255.53
L205.124 253.132
L207.134 252.868
L207.804 252.908
L209.143 253.135
L210.706 253.639
L212.716 254.306
L214.502 254.771
L215.395 254.886
L217.628 254.817
L219.414 254.493
L220.084 245.713
L220.977 237.256
L221.87 231.051
L222.763 226.438
L223.433 223.803
L224.326 221.301
L224.996 220.019
L225.666 219.257
L226.112 218.956
L227.005 218.857
L227.675 219.058
L228.345 219.388
L229.908 220.38
L231.024 220.784
L231.917 220.746
L232.587 220.466
L233.48 219.689
L233.927 219.185
L235.043 217.44
L236.606 214.179
L239.732 206.975
L241.072 204.414
L242.411 202.553
L243.081 201.862
L243.974 201.244
L244.867 200.84
L245.537 200.683
L246.43 200.608
L247.323 200.607
L249.556 200.616
L251.119 200.285
L252.682 199.447
L253.575 198.782
L254.691 197.796
L260.05 192.413
L260.943 191.731
L262.059 191.011
L265.185 189.779
L267.195 189.252
L274.563 186.978
L276.795 186.282
L278.805 185.732
L279.921 185.436
L281.038 185.198
L281.931 184.972
L285.28 184.222
L286.396 184.006
L287.066 183.831
L289.299 183.358
L291.085 182.933
L291.755 182.778
L293.094 182.491
L303.365 179.568
L304.481 179.171
L306.268 178.574
L307.161 178.242
L308.5 177.756
L309.617 177.284
L311.626 176.494
L318.771 173.102
L323.46 170.492
L324.576 169.783
L327.255 168.024
L334.4 162.467
L339.089 158.022
L340.429 156.637
L343.331 153.388
L347.797 147.746
L350.253 144.307
L356.951 133.643
L360.97 126.43
L364.319 120.05
L365.882 117.063
L374.143 101.031
L375.929 97.7332
L377.269 95.2846
L379.278 91.7358
L384.637 83.0201
L390.665 74.6648
L393.121 71.8141
L395.131 69.8627
L399.596 66.6472
L403.615 64.8288
L406.741 63.8786
L409.197 63.3754
L410.537 63.1404
L412.546 62.8604
L422.37 62.2512
L423.263 62.2499
L426.836 62.1723
L427.952 62.1797
L428.399 62.1504
L429.292 62.1604
L431.301 62.1228
L432.194 62.1372
L449.61 62.1056
L454.522 62.0996
L455.415 62.0718
L456.085 62.0738
L459.434 62.0829
L460.327 62.1097
L481.538 62.0724
L482.208 62.1094
L482.654 62.0838
L483.771 62.103
L485.334 62.0972
L487.12 62.0998
L489.353 62.0692
L508.778 62.0708
L511.01 62.0958
L513.69 62.0927
L519.495 62.0907
L520.611 62.0935
L523.514 62.0933
L527.756 62.0991
L528.649 62.0867
L529.542 62.0984
L541.152 62.094
L542.939 62.1012
L544.502 62.0888
L545.841 62.0911
L548.967 62.1182
L549.86 62.1074
L551.646 62.0737
L552.539 62.0857
L553.879 62.0745
L569.732 62.0928
L571.071 62.0924
L573.081 62.0788
L573.75 62.0982
L593.175 62.0844
L594.068 62.108
L597.641 62.1031
L610.367 62.0967
L612.154 62.0856
L615.949 62.1218
L616.619 62.108
L620.638 62.1053
L621.308 62.102
L626.22 62.0715
L627.56 62.0954
L628.676 62.0763
L630.016 62.1021
L632.472 62.0729
L633.588 62.1082
L636.491 62.0797
L637.384 62.0963
L638.053 62.095
L665.963 62.1069
L666.633 70.6992
L667.526 78.9706
L668.419 85.0921
L669.535 90.9567
L671.098 97.4763
L672.884 103.68
L674.224 107.665
L675.564 111.07
L676.68 113.536
L678.02 116.071
L679.583 118.528
L681.369 120.763
L683.378 122.882
L684.048 123.533
L685.388 124.882
L686.727 126.444
L689.183 130.115
L691.193 133.867
L695.882 143.215
L697.891 146.748
L699.901 149.956
L705.482 158.836
L707.715 163.172
L710.618 169.638
L712.627 174.486
L717.316 186.017
L724.014 202.568
L729.373 216.075
L732.722 223.797
L736.071 230.288
L737.857 233.217
L740.536 237.02
L741.876 238.7
L745.002 242.159
L746.565 243.645
L747.905 244.842
L749.691 246.247
L753.263 248.444
L757.059 250.031
L758.398 250.434
L761.971 251.401
L762.641 251.546
L765.097 252.052
L765.99 252.225
L767.776 252.574
L769.116 252.75
L773.135 253.192
L774.028 253.242
L777.6 253.45
L777.6 253.45" style="fill:none;stroke:#ff0000;stroke-linecap:square;"/>
   </g>
   <g id="line2d_5">
    <path clip-path="url(#pf8ef257490)" d="
M108 304.635
L108.447 297.311
L109.116 278.927
L112.019 187.531
L112.689 174.77
L113.135 168.986
L113.582 165.458
L113.805 164.512
L114.028 164.065
L114.252 164.211
L114.475 164.836
L114.922 167.527
L115.368 172.04
L116.038 181.644
L116.931 198.458
L118.717 238.783
L119.61 257.091
L120.28 266.686
L120.95 273.675
L121.62 278.761
L122.29 282.513
L122.959 285.228
L123.852 287.703
L124.746 289.381
L124.969 289.493
L125.192 289.267
L125.415 288.794
L125.862 287.015
L126.532 282.721
L127.425 274.803
L128.988 258.025
L130.551 242.108
L131.444 235.154
L132.114 231.334
L132.783 228.9
L133.23 228.087
L133.677 227.892
L133.9 228.02
L134.346 228.733
L135.016 230.864
L135.686 234.008
L136.802 240.992
L139.928 262.744
L140.821 267.204
L141.491 269.517
L141.938 270.587
L142.384 271.21
L142.831 271.455
L143.277 271.213
L143.724 270.618
L144.17 269.664
L144.84 267.595
L145.51 264.963
L146.626 259.696
L148.413 250.866
L149.306 247.121
L150.199 244.294
L150.869 242.917
L151.315 242.302
L151.762 242.031
L152.208 242.053
L152.655 242.303
L153.325 243.206
L153.995 244.624
L155.111 247.803
L158.237 257.983
L159.13 260.113
L159.8 261.259
L160.469 261.927
L161.139 262.17
L161.586 262.089
L162.032 261.843
L162.479 261.425
L163.372 260.086
L164.488 257.848
L167.614 250.923
L168.507 249.593
L169.4 248.735
L170.07 248.482
L170.74 248.509
L171.187 248.654
L172.303 249.601
L173.419 251.083
L175.206 253.879
L176.322 255.548
L177.215 256.624
L178.108 257.386
L178.778 257.713
L179.225 257.829
L179.894 257.829
L180.564 257.631
L181.681 256.93
L183.243 255.412
L185.253 253.248
L186.369 252.287
L187.486 251.658
L188.602 251.418
L190.165 251.75
L191.728 252.612
L195.97 255.43
L197.533 255.829
L199.096 255.684
L201.552 254.684
L205.124 253.108
L206.911 252.828
L208.473 252.965
L211.376 253.832
L213.162 254.427
L214.502 254.719
L215.172 254.818
L216.511 254.893
L218.074 254.708
L218.521 254.635
L222.317 254.013
L222.986 254.221
L223.433 254.532
L223.879 254.954
L224.549 255.919
L225.219 257.201
L226.335 260.152
L227.452 263.811
L230.578 275.067
L231.694 278.33
L232.81 280.741
L233.48 281.771
L234.373 282.588
L235.043 282.855
L235.713 282.889
L236.383 282.657
L237.722 281.781
L239.062 280.667
L240.625 279.718
L241.295 279.498
L241.965 279.483
L243.081 279.905
L243.974 280.569
L245.314 282.112
L250.226 289.251
L250.896 289.938
L251.789 290.675
L252.905 291.242
L253.798 291.461
L254.915 291.469
L259.827 290.483
L262.283 290.929
L264.292 291.815
L266.971 292.29
L268.758 292.431
L269.651 292.423
L270.321 292.452
L271.66 292.473
L272.33 292.493
L273.446 292.472
L276.795 292.513
L278.358 292.511
L281.484 292.516
L282.154 292.521
L283.717 292.506
L298.453 292.489
L299.123 292.484
L303.588 292.519
L304.258 292.484
L307.384 292.518
L308.277 292.484
L309.394 292.52
L311.626 292.479
L312.966 292.506
L314.752 292.485
L316.985 292.482
L405.848 292.5
L407.411 292.506
L408.304 292.512
L414.779 292.478
L415.449 292.493
L417.012 292.513
L419.021 292.488
L419.691 292.506
L424.157 292.478
L424.826 292.505
L426.613 292.501
L427.506 292.496
L429.515 292.495
L430.408 292.489
L433.088 292.498
L434.427 292.516
L435.32 292.487
L436.883 292.521
L437.553 292.499
L438.893 292.52
L440.232 292.506
L443.358 292.511
L444.251 292.492
L474.84 292.499
L475.956 292.487
L477.296 292.519
L477.966 292.483
L478.636 292.516
L479.975 292.492
L484.441 292.487
L485.111 292.522
L485.78 292.507
L487.567 292.502
L488.906 292.499
L492.032 292.487
L495.828 292.497
L496.944 292.506
L498.954 292.52
L500.07 292.506
L501.856 292.514
L502.526 292.512
L513.913 292.511
L514.583 292.482
L515.476 292.507
L517.485 292.481
L518.155 292.492
L520.165 292.489
L521.058 292.505
L522.397 292.5
L525.077 292.51
L526.416 292.514
L529.765 292.521
L530.658 292.491
L549.86 292.479
L550.53 292.5
L552.316 292.511
L555.665 292.52
L556.558 292.483
L562.587 292.512
L578.886 292.493
L580.002 292.515
L580.895 292.484
L581.788 292.491
L585.361 292.494
L586.477 292.518
L587.37 292.483
L588.487 292.503
L589.603 292.51
L594.068 292.492
L594.962 292.521
L597.194 292.501
L598.534 292.517
L599.874 292.5
L601.436 292.513
L603.223 292.499
L604.116 292.48
L613.493 292.507
L618.629 292.493
L619.745 292.515
L620.861 292.499
L628.899 292.479
L630.016 292.517
L630.909 292.483
L632.025 292.512
L634.258 292.508
L635.151 292.479
L636.714 292.496
L640.51 292.483
L641.179 292.5
L643.412 292.491
L645.645 292.502
L654.129 292.503
L655.469 292.511
L658.371 292.493
L664.177 292.51
L665.293 292.478
L667.302 292.518
L671.768 292.499
L672.884 292.484
L680.252 292.297
L681.369 291.312
L682.262 290.24
L685.164 286.341
L686.951 284.519
L688.514 283.598
L690.3 283.339
L692.756 283.8
L694.542 284.203
L696.998 284.086
L697.891 283.763
L699.231 283.075
L701.91 281.036
L703.696 279.59
L705.482 278.358
L706.599 277.78
L708.162 277.137
L711.511 276.311
L712.627 276.046
L714.413 275.49
L717.316 274.005
L721.112 271.172
L725.354 268.022
L741.43 259.078
L747.011 257.218
L760.408 254.987
L769.562 254.527
L770.232 254.493
L777.6 254.239
L777.6 254.239" style="fill:none;stroke:#0000ff;stroke-linecap:square;"/>
   </g>
   <g id="line2d_6">
    <path clip-path="url(#pf8ef257490)" d="
M108 304.655
L108.447 297.308
L109.116 278.933
L112.019 187.528
L112.689 174.774
L113.359 166.923
L113.805 164.489
L114.028 164.075
L114.252 164.194
L114.475 164.808
L114.922 167.54
L115.368 172.021
L116.038 181.642
L116.931 198.494
L118.494 233.652
L119.61 257.103
L120.28 266.666
L120.95 273.694
L121.62 278.77
L122.29 282.487
L122.959 285.195
L123.629 287.206
L124.522 288.992
L124.746 289.366
L124.969 289.461
L125.192 289.255
L125.415 288.789
L125.862 286.97
L126.309 284.34
L126.978 278.99
L128.095 267.847
L130.327 244.177
L131.221 236.709
L131.89 232.438
L132.56 229.559
L133.007 228.391
L133.453 227.909
L133.677 227.873
L133.9 228.015
L134.346 228.728
L135.016 230.827
L135.686 233.998
L136.579 239.457
L140.375 265.159
L141.045 268.052
L141.714 270.116
L142.161 270.932
L142.608 271.357
L143.054 271.39
L143.501 270.976
L143.947 270.203
L144.617 268.343
L145.287 265.892
L146.403 260.765
L149.082 247.986
L149.976 244.891
L150.869 242.891
L151.315 242.294
L151.762 242.028
L152.208 242.04
L152.655 242.313
L153.101 242.87
L153.548 243.655
L154.218 245.204
L154.888 247.12
L156.451 252.337
L158.013 257.37
L159.13 260.122
L160.023 261.504
L160.469 261.95
L160.916 262.144
L161.586 262.099
L162.032 261.846
L162.926 260.828
L163.819 259.24
L164.712 257.314
L167.614 250.919
L168.731 249.325
L169.624 248.606
L170.294 248.447
L170.963 248.55
L171.856 249.154
L172.526 249.852
L173.643 251.401
L176.769 256.118
L177.885 257.236
L178.778 257.733
L179.225 257.826
L180.118 257.789
L181.234 257.259
L182.35 256.304
L183.243 255.382
L185.476 253.013
L187.039 251.869
L187.709 251.584
L188.379 251.465
L189.049 251.467
L189.942 251.661
L191.505 252.459
L193.068 253.608
L195.97 255.427
L196.863 255.728
L198.203 255.827
L199.543 255.556
L201.552 254.704
L204.008 253.509
L205.348 253.067
L206.017 252.931
L207.58 252.868
L208.25 252.925
L210.036 253.353
L210.706 253.61
L211.599 253.891
L214.055 254.664
L215.395 254.834
L217.181 254.828
L218.298 254.696
L222.093 253.992
L222.763 254.118
L223.433 254.498
L223.879 254.959
L224.773 256.291
L225.889 258.864
L227.005 262.297
L229.015 269.57
L230.354 274.323
L231.471 277.725
L232.587 280.325
L233.48 281.745
L234.373 282.605
L235.266 282.906
L236.16 282.761
L237.722 281.769
L239.732 280.194
L240.848 279.634
L241.741 279.475
L242.634 279.677
L243.528 280.195
L244.421 281.025
L245.314 282.152
L246.877 284.44
L249.779 288.766
L250.896 289.957
L251.789 290.693
L252.905 291.291
L253.798 291.478
L254.691 291.503
L256.701 291.126
L259.38 290.545
L261.166 290.621
L262.506 291.049
L263.176 291.333
L263.846 291.646
L265.408 292.09
L266.078 292.196
L268.311 292.416
L276.349 292.494
L279.028 292.494
L280.145 292.518
L281.708 292.484
L282.377 292.516
L283.27 292.509
L287.066 292.505
L288.406 292.502
L289.745 292.482
L290.638 292.499
L293.764 292.479
L294.434 292.509
L295.327 292.508
L301.802 292.499
L302.919 292.49
L318.548 292.493
L319.441 292.481
L394.908 292.514
L396.694 292.514
L397.364 292.516
L406.071 292.479
L406.741 292.483
L409.644 292.514
L410.314 292.482
L410.983 292.508
L411.876 292.502
L414.109 292.516
L414.779 292.516
L423.933 292.521
L424.38 292.509
L441.795 292.494
L444.251 292.491
L446.707 292.495
L448.27 292.479
L449.163 292.505
L450.056 292.491
L451.843 292.52
L454.075 292.499
L455.415 292.519
L456.085 292.491
L464.793 292.498
L469.258 292.505
L471.937 292.485
L473.277 292.521
L474.617 292.495
L476.403 292.514
L477.296 292.489
L478.412 292.52
L479.082 292.487
L479.975 292.501
L483.324 292.483
L485.111 292.517
L488.236 292.488
L490.916 292.508
L491.809 292.508
L493.595 292.512
L507.884 292.515
L508.554 292.508
L514.583 292.51
L515.476 292.481
L517.709 292.512
L518.602 292.494
L521.058 292.48
L521.951 292.5
L523.067 292.492
L524.184 292.516
L525.523 292.487
L528.649 292.505
L531.998 292.497
L533.115 292.512
L566.159 292.484
L567.052 292.521
L570.625 292.495
L571.294 292.505
L572.634 292.502
L580.449 292.514
L581.788 292.487
L583.575 292.517
L584.468 292.489
L589.38 292.504
L631.802 292.479
L632.472 292.519
L633.588 292.493
L634.704 292.482
L680.029 292.377
L680.476 292.152
L681.369 291.345
L682.932 289.364
L684.718 286.888
L686.281 285.127
L686.951 284.52
L688.067 283.821
L689.183 283.415
L689.853 283.361
L690.97 283.398
L695.658 284.256
L697.444 283.939
L698.338 283.581
L701.24 281.589
L705.706 278.235
L708.831 276.957
L714.413 275.501
L716.423 274.553
L717.986 273.574
L719.772 272.261
L721.335 271.03
L722.898 269.793
L726.024 267.617
L730.712 264.956
L731.605 264.503
L740.09 259.73
L741.206 259.214
L743.439 258.283
L747.458 257.144
L751.923 256.301
L752.817 256.184
L753.71 256.02
L754.826 255.809
L755.496 255.723
L757.059 255.456
L760.631 254.956
L761.301 254.901
L763.757 254.71
L764.65 254.678
L767.553 254.569
L768.222 254.568
L769.562 254.525
L774.474 254.349
L775.367 254.342
L777.6 254.227
L777.6 254.227" style="fill:none;stroke:#0000ff;stroke-linecap:square;"/>
   </g>
   <g id="line2d_7">
    <path clip-path="url(#pf8ef257490)" d="
M108 304.637
L108.447 297.283
L109.116 278.914
L112.019 187.496
L112.689 174.791
L113.135 169.004
L113.582 165.444
L113.805 164.478
L114.028 164.075
L114.252 164.223
L114.475 164.844
L114.922 167.585
L115.368 172.064
L116.038 181.692
L116.931 198.625
L118.494 233.922
L119.387 253.421
L120.057 264.024
L120.727 271.746
L121.396 277.351
L122.066 281.442
L122.736 284.433
L123.406 286.615
L124.076 288.24
L124.746 289.382
L124.969 289.533
L125.192 289.342
L125.639 288.103
L126.085 285.885
L126.755 281.053
L127.648 272.676
L131.221 236.784
L131.89 232.525
L132.56 229.633
L133.007 228.484
L133.453 227.988
L133.677 227.993
L133.9 228.132
L134.346 228.828
L134.793 230.095
L135.463 232.93
L136.356 238.097
L137.695 247.548
L139.482 260.178
L140.375 265.295
L141.268 268.965
L141.714 270.248
L142.161 271.109
L142.608 271.492
L142.831 271.568
L143.277 271.374
L143.724 270.778
L144.17 269.772
L144.84 267.719
L145.733 264.064
L146.85 258.654
L148.636 249.945
L149.529 246.416
L150.422 243.863
L150.869 242.972
L151.539 242.188
L151.985 242.048
L152.432 242.229
L152.878 242.61
L153.548 243.7
L154.218 245.255
L155.557 249.369
L157.79 256.824
L158.907 259.738
L159.8 261.342
L160.469 262.044
L161.139 262.277
L161.586 262.218
L162.256 261.736
L162.926 260.931
L164.042 258.87
L165.158 256.366
L167.391 251.422
L168.284 249.96
L169.177 248.968
L169.624 248.707
L170.294 248.503
L170.963 248.641
L171.856 249.229
L172.526 249.943
L173.643 251.502
L174.536 252.905
L176.545 255.919
L177.438 256.905
L178.331 257.587
L178.778 257.8
L179.671 257.928
L180.341 257.775
L181.011 257.485
L181.904 256.806
L184.137 254.504
L184.806 253.757
L186.816 252.075
L187.932 251.607
L188.825 251.486
L190.612 252.03
L191.728 252.702
L193.737 254.169
L194.63 254.807
L196.863 255.8
L197.756 255.91
L198.649 255.83
L199.766 255.549
L200.436 255.315
L201.552 254.783
L205.348 253.099
L207.357 252.91
L208.25 252.986
L214.948 254.879
L216.735 254.956
L217.628 254.845
L219.414 254.53
L220.084 245.829
L220.977 237.4
L221.87 231.239
L222.763 226.666
L223.656 223.379
L224.326 221.568
L224.996 220.375
L225.666 219.601
L226.335 219.254
L227.005 219.256
L227.898 219.615
L228.568 220.026
L230.578 221.238
L231.471 221.443
L232.141 221.356
L233.034 220.874
L233.704 220.229
L234.373 219.322
L235.266 217.844
L236.383 215.582
L240.848 205.891
L241.965 204.24
L242.858 203.266
L243.974 202.457
L245.09 202.105
L245.76 202.005
L246.653 202.05
L250.003 202.289
L252.235 201.647
L254.468 200.114
L257.594 197.141
L259.603 195.379
L262.283 193.827
L263.622 193.39
L266.525 192.976
L267.864 192.876
L269.651 192.689
L270.544 192.616
L272.33 192.439
L273 192.386
L275.679 192.248
L280.591 192.279
L284.61 192.605
L285.726 192.708
L297.56 194.516
L298.676 194.738
L299.793 194.936
L300.686 195.146
L301.802 195.37
L306.491 196.392
L308.724 196.958
L310.287 197.34
L312.966 198.099
L318.548 199.783
L319.887 200.231
L321.45 200.756
L323.683 201.604
L326.139 202.521
L334.624 206.323
L335.74 206.913
L338.419 208.316
L341.098 209.863
L342.438 210.667
L346.234 213.129
L350.923 216.535
L352.262 217.605
L353.155 218.315
L355.165 220.024
L356.504 221.19
L358.067 222.626
L361.863 226.32
L369.008 234.23
L372.58 238.607
L373.92 240.292
L385.53 254.814
L389.326 259.04
L390.219 259.715
L391.782 260.349
L393.345 260.675
L398.257 260.956
L399.596 260.974
L402.052 260.993
L403.392 260.967
L404.508 260.986
L405.848 260.962
L407.411 260.972
L411.876 260.984
L412.77 260.956
L413.439 260.977
L417.012 260.99
L417.682 260.995
L419.468 260.959
L428.176 260.981
L429.292 260.962
L430.185 260.983
L432.194 260.964
L433.757 260.98
L442.465 260.963
L448.27 260.969
L449.387 260.974
L451.619 260.977
L453.852 260.994
L454.745 260.961
L455.415 260.966
L665.963 260.995
L666.633 269.531
L667.302 275.756
L667.972 280.282
L668.642 283.614
L669.535 286.651
L670.428 288.658
L671.098 289.721
L671.991 290.656
L673.108 291.432
L674.894 292.034
L678.243 292.423
L678.913 292.43
L679.583 292.378
L680.476 291.833
L681.592 290.718
L684.048 287.468
L685.164 286.01
L687.174 284.102
L688.067 283.559
L689.183 283.237
L689.853 283.179
L690.746 283.214
L695.435 284.148
L695.882 284.167
L697.668 283.782
L699.231 283.005
L701.017 281.716
L705.929 278.09
L707.269 277.459
L710.171 276.59
L712.85 276.002
L715.976 274.785
L718.432 273.227
L719.995 272.052
L722.898 269.794
L726.47 267.329
L742.099 258.822
L745.225 257.723
L753.04 256.156
L753.71 256.041
L756.835 255.528
L763.087 254.825
L768.222 254.612
L769.116 254.625
L772.688 254.475
L773.358 254.477
L777.6 254.281
L777.6 254.281" style="fill:none;stroke:#0000ff;stroke-linecap:square;"/>
   </g>
   <g id="line2d_8">
    <path clip-path="url(#pf8ef257490)" d="
M108 304.637
L108.447 297.285
L109.116 278.934
L112.019 187.489
L112.689 174.77
L113.359 166.932
L113.805 164.512
L114.028 164.109
L114.252 164.197
L114.475 164.841
L114.922 167.585
L115.368 172.093
L116.038 181.733
L116.931 198.655
L118.494 233.998
L119.61 257.367
L120.28 266.905
L120.95 273.854
L121.62 278.881
L122.29 282.565
L122.959 285.284
L123.852 287.748
L124.522 289.042
L124.746 289.401
L124.969 289.542
L125.192 289.341
L125.415 288.877
L125.862 287.13
L126.532 282.873
L127.425 274.969
L129.211 255.757
L130.551 242.254
L131.444 235.28
L132.114 231.436
L132.783 229.016
L133.23 228.212
L133.453 228.027
L133.677 227.987
L133.9 228.137
L134.346 228.879
L134.793 230.139
L135.463 232.957
L136.356 238.106
L137.919 249.25
L139.482 260.246
L140.375 265.315
L141.045 268.266
L141.714 270.297
L142.161 271.169
L142.608 271.583
L143.054 271.593
L143.501 271.15
L143.947 270.367
L144.617 268.574
L145.51 265.14
L146.85 258.698
L148.859 249.019
L149.752 245.713
L150.645 243.439
L151.315 242.438
L151.762 242.16
L152.208 242.16
L152.655 242.432
L153.101 242.98
L153.771 244.212
L154.441 245.923
L155.557 249.404
L157.567 256.177
L158.683 259.279
L159.576 261.067
L160.469 262.079
L160.916 262.284
L161.586 262.271
L162.256 261.782
L162.926 260.985
L164.042 258.931
L165.382 255.891
L166.944 252.321
L168.061 250.306
L168.954 249.195
L169.624 248.71
L170.517 248.54
L171.187 248.77
L171.633 249.082
L172.526 249.981
L173.419 251.185
L174.982 253.666
L176.099 255.371
L177.438 256.967
L178.331 257.671
L179.448 257.965
L180.118 257.901
L181.011 257.515
L181.904 256.845
L183.02 255.756
L185.923 252.77
L187.039 251.993
L188.156 251.603
L189.272 251.621
L189.718 251.713
L191.058 252.289
L192.621 253.39
L193.737 254.197
L194.63 254.814
L195.3 255.221
L196.863 255.848
L198.649 255.904
L201.105 255.047
L203.338 253.892
L206.464 252.956
L207.804 252.959
L210.26 253.547
L212.046 254.167
L213.832 254.715
L215.172 254.943
L216.958 254.976
L219.414 254.569
L220.084 245.78
L220.977 237.258
L221.87 231.05
L222.763 226.383
L223.656 223.012
L224.549 220.749
L225.219 219.663
L225.666 219.203
L226.335 218.804
L227.005 218.763
L228.568 219.459
L229.908 220.292
L230.578 220.602
L231.471 220.769
L232.364 220.526
L233.257 219.892
L234.15 218.829
L235.266 216.984
L236.383 214.665
L239.732 206.901
L241.072 204.361
L242.634 202.222
L243.528 201.429
L245.09 200.694
L246.207 200.532
L248.216 200.627
L251.119 200.244
L252.235 199.744
L254.245 198.213
L260.273 192.288
L262.506 190.879
L264.962 189.958
L266.078 189.675
L268.758 189.059
L271.214 188.443
L277.465 186.898
L278.582 186.683
L279.921 186.403
L281.038 186.232
L282.824 185.926
L285.95 185.397
L288.852 184.932
L290.638 184.606
L292.201 184.337
L294.211 183.962
L295.551 183.72
L296.89 183.44
L298.9 183.036
L305.375 181.464
L314.082 178.734
L321.004 175.948
L324.576 174.213
L329.712 171.339
L330.828 170.616
L332.391 169.6
L336.186 166.848
L341.545 162.228
L343.331 160.447
L344.224 159.562
L349.136 153.925
L352.932 148.797
L356.728 142.967
L358.067 140.747
L360.747 136.042
L364.096 129.639
L370.571 116.178
L378.609 99.0943
L381.734 92.904
L383.521 89.5288
L387.316 82.9334
L390.219 78.4216
L391.335 76.7648
L394.015 73.1241
L395.354 71.5173
L396.917 69.7933
L400.043 67.0783
L402.722 65.4194
L406.741 63.9184
L409.644 63.2821
L417.458 62.5321
L427.729 62.2793
L428.845 62.2858
L429.738 62.2706
L431.301 62.25
L432.641 62.2311
L440.009 62.2357
L440.902 62.2339
L449.61 62.1923
L450.503 62.2021
L455.415 62.2232
L456.531 62.1942
L477.742 62.1937
L478.859 62.1781
L488.013 62.1909
L488.906 62.21
L490.246 62.2202
L490.916 62.2247
L493.148 62.1959
L494.265 62.2165
L500.516 62.1986
L502.303 62.1839
L503.196 62.2108
L504.312 62.1846
L505.205 62.2101
L517.485 62.2052
L519.495 62.193
L521.281 62.1865
L524.407 62.1948
L525.3 62.2109
L526.416 62.1993
L562.587 62.2098
L563.48 62.2041
L565.043 62.2184
L568.392 62.2088
L569.732 62.2091
L575.313 62.2076
L579.332 62.2008
L580.895 62.2144
L584.691 62.2165
L586.924 62.2145
L588.933 62.2206
L590.719 62.1881
L591.612 62.2287
L593.399 62.2011
L594.068 62.1881
L596.971 62.2134
L598.087 62.1897
L598.757 62.197
L665.963 62.2346
L666.633 70.8676
L667.526 79.2037
L668.419 85.2954
L669.535 91.1624
L670.652 95.98
L672.214 101.75
L674.001 107.261
L675.787 111.816
L677.35 115.035
L679.136 118.025
L681.369 120.869
L682.708 122.274
L684.271 123.821
L685.611 125.209
L687.844 128.129
L688.96 129.89
L691.416 134.461
L696.998 145.374
L699.677 149.731
L705.482 158.908
L707.045 161.886
L709.055 166.153
L712.404 174.042
L715.976 182.834
L723.344 200.943
L728.926 215.066
L733.615 225.707
L734.955 228.352
L737.857 233.294
L741.206 237.944
L743.439 240.581
L748.128 245.102
L751.03 247.224
L753.486 248.638
L757.729 250.331
L758.622 250.591
L767.106 252.532
L774.028 253.35
L774.697 253.384
L777.6 253.522
L777.6 253.522" style="fill:none;stroke:#0000ff;stroke-linecap:square;"/>
   </g>
   <g id="matplotlib.axis_1">
    <g id="xtick_1">
     <g id="line2d_9">
      <defs>
       <path d="
M0 0
L0 -4" id="m93b0483c22" style="stroke:#000000;stroke-width:0.5;"/>
      </defs>
      <g>
       <use style="stroke:#000000;stroke-width:0.5;" x="108.0" xlink:href="#m93b0483c22" y="306.0"/>
      </g>
     </g>
     <g id="line2d_10">
      <defs>
       <path d="
M0 0
L0 4" id="m741efc42ff" style="stroke:#000000;stroke-width:0.5;"/>
      </defs>
      <g>
       <use style="stroke:#000000;stroke-width:0.5;" x="108.0" xlink:href="#m741efc42ff" y="36.0"/>
      </g>
     </g>
     <g id="text_1">
      <!-- 0.0 -->
      <defs>
       <path d="
M31.7812 66.4062
Q24.1719 66.4062 20.3281 58.9062
Q16.5 51.4219 16.5 36.375
Q16.5 21.3906 20.3281 13.8906
Q24.1719 6.39062 31.7812 6.39062
Q39.4531 6.39062 43.2812 13.8906
Q47.125 21.3906 47.125 36.375
Q47.125 51.4219 43.2812 58.9062
Q39.4531 66.4062 31.7812 66.4062
M31.7812 74.2188
Q44.0469 74.2188 50.5156 64.5156
Q56.9844 54.8281 56.9844 36.375
Q56.9844 17.9688 50.5156 8.26562
Q44.0469 -1.42188 31.7812 -1.42188
Q19.5312 -1.42188 13.0625 8.26562
Q6.59375 17.9688 6.59375 36.375
Q6.59375 54.8281 13.0625 64.5156
Q19.5312 74.2188 31.7812 74.2188" id="DejaVuSans-30"/>
       <path d="
M10.6875 12.4062
L21 12.4062
L21 0
L10.6875 0
z
" id="DejaVuSans-2e"/>
      </defs>
      <g transform="translate(99.2521875 319.118125)scale(0.12 -0.12)">
       <use xlink:href="#DejaVuSans-30"/>
       <use x="63.623046875" xlink:href="#DejaVuSans-2e"/>
       <use x="95.41015625" xlink:href="#DejaVuSans-30"/>
      </g>
     </g>
    </g>
    <g id="xtick_2">
     <g id="line2d_11">
      <g>
       <use style="stroke:#000000;stroke-width:0.5;" x="219.6" xlink:href="#m93b0483c22" y="306.0"/>
      </g>
     </g>
     <g id="line2d_12">
      <g>
       <use style="stroke:#000000;stroke-width:0.5;" x="219.6" xlink:href="#m741efc42ff" y="36.0"/>
      </g>
     </g>
     <g id="text_2">
      <!-- 0.5 -->
      <defs>
       <path d="
M10.7969 72.9062
L49.5156 72.9062
L49.5156 64.5938
L19.8281 64.5938
L19.8281 46.7344
Q21.9688 47.4688 24.1094 47.8281
Q26.2656 48.1875 28.4219 48.1875
Q40.625 48.1875 47.75 41.5
Q54.8906 34.8125 54.8906 23.3906
Q54.8906 11.625 47.5625 5.09375
Q40.2344 -1.42188 26.9062 -1.42188
Q22.3125 -1.42188 17.5469 -0.640625
Q12.7969 0.140625 7.71875 1.70312
L7.71875 11.625
Q12.1094 9.23438 16.7969 8.0625
Q21.4844 6.89062 26.7031 6.89062
Q35.1562 6.89062 40.0781 11.3281
Q45.0156 15.7656 45.0156 23.3906
Q45.0156 31 40.0781 35.4375
Q35.1562 39.8906 26.7031 39.8906
Q22.75 39.8906 18.8125 39.0156
Q14.8906 38.1406 10.7969 36.2812
z
" id="DejaVuSans-35"/>
      </defs>
      <g transform="translate(210.9778125 319.118125)scale(0.12 -0.12)">
       <use xlink:href="#DejaVuSans-30"/>
       <use x="63.623046875" xlink:href="#DejaVuSans-2e"/>
       <use x="95.41015625" xlink:href="#DejaVuSans-35"/>
      </g>
     </g>
    </g>
    <g id="xtick_3">
     <g id="line2d_13">
      <g>
       <use style="stroke:#000000;stroke-width:0.5;" x="331.2" xlink:href="#m93b0483c22" y="306.0"/>
      </g>
     </g>
     <g id="line2d_14">
      <g>
       <use style="stroke:#000000;stroke-width:0.5;" x="331.2" xlink:href="#m741efc42ff" y="36.0"/>
      </g>
     </g>
     <g id="text_3">
      <!-- 1.0 -->
      <defs>
       <path d="
M12.4062 8.29688
L28.5156 8.29688
L28.5156 63.9219
L10.9844 60.4062
L10.9844 69.3906
L28.4219 72.9062
L38.2812 72.9062
L38.2812 8.29688
L54.3906 8.29688
L54.3906 0
L12.4062 0
z
" id="DejaVuSans-31"/>
      </defs>
      <g transform="translate(322.715625 319.118125)scale(0.12 -0.12)">
       <use xlink:href="#DejaVuSans-31"/>
       <use x="63.623046875" xlink:href="#DejaVuSans-2e"/>
       <use x="95.41015625" xlink:href="#DejaVuSans-30"/>
      </g>
     </g>
    </g>
    <g id="xtick_4">
     <g id="line2d_15">
      <g>
       <use style="stroke:#000000;stroke-width:0.5;" x="442.8" xlink:href="#m93b0483c22" y="306.0"/>
      </g>
     </g>
     <g id="line2d_16">
      <g>
       <use style="stroke:#000000;stroke-width:0.5;" x="442.8" xlink:href="#m741efc42ff" y="36.0"/>
      </g>
     </g>
     <g id="text_4">
      <!-- 1.5 -->
      <g transform="translate(434.44125 319.118125)scale(0.12 -0.12)">
       <use xlink:href="#DejaVuSans-31"/>
       <use x="63.623046875" xlink:href="#DejaVuSans-2e"/>
       <use x="95.41015625" xlink:href="#DejaVuSans-35"/>
      </g>
     </g>
    </g>
    <g id="xtick_5">
     <g id="line2d_17">
      <g>
       <use style="stroke:#000000;stroke-width:0.5;" x="554.4" xlink:href="#m93b0483c22" y="306.0"/>
      </g>
     </g>
     <g id="line2d_18">
      <g>
       <use style="stroke:#000000;stroke-width:0.5;" x="554.4" xlink:href="#m741efc42ff" y="36.0"/>
      </g>
     </g>
     <g id="text_5">
      <!-- 2.0 -->
      <defs>
       <path d="
M19.1875 8.29688
L53.6094 8.29688
L53.6094 0
L7.32812 0
L7.32812 8.29688
Q12.9375 14.1094 22.625 23.8906
Q32.3281 33.6875 34.8125 36.5312
Q39.5469 41.8438 41.4219 45.5312
Q43.3125 49.2188 43.3125 52.7812
Q43.3125 58.5938 39.2344 62.25
Q35.1562 65.9219 28.6094 65.9219
Q23.9688 65.9219 18.8125 64.3125
Q13.6719 62.7031 7.8125 59.4219
L7.8125 69.3906
Q13.7656 71.7812 18.9375 73
Q24.125 74.2188 28.4219 74.2188
Q39.75 74.2188 46.4844 68.5469
Q53.2188 62.8906 53.2188 53.4219
Q53.2188 48.9219 51.5312 44.8906
Q49.8594 40.875 45.4062 35.4062
Q44.1875 33.9844 37.6406 27.2188
Q31.1094 20.4531 19.1875 8.29688" id="DejaVuSans-32"/>
      </defs>
      <g transform="translate(545.69625 319.118125)scale(0.12 -0.12)">
       <use xlink:href="#DejaVuSans-32"/>
       <use x="63.623046875" xlink:href="#DejaVuSans-2e"/>
       <use x="95.41015625" xlink:href="#DejaVuSans-30"/>
      </g>
     </g>
    </g>
    <g id="xtick_6">
     <g id="line2d_19">
      <g>
       <use style="stroke:#000000;stroke-width:0.5;" x="666.0" xlink:href="#m93b0483c22" y="306.0"/>
      </g>
     </g>
     <g id="line2d_20">
      <g>
       <use style="stroke:#000000;stroke-width:0.5;" x="666.0" xlink:href="#m741efc42ff" y="36.0"/>
      </g>
     </g>
     <g id="text_6">
      <!-- 2.5 -->
      <g transform="translate(657.421875 319.118125)scale(0.12 -0.12)">
       <use xlink:href="#DejaVuSans-32"/>
       <use x="63.623046875" xlink:href="#DejaVuSans-2e"/>
       <use x="95.41015625" xlink:href="#DejaVuSans-35"/>
      </g>
     </g>
    </g>
    <g id="xtick_7">
     <g id="line2d_21">
      <g>
       <use style="stroke:#000000;stroke-width:0.5;" x="777.6" xlink:href="#m93b0483c22" y="306.0"/>
      </g>
     </g>
     <g id="line2d_22">
      <g>
       <use style="stroke:#000000;stroke-width:0.5;" x="777.6" xlink:href="#m741efc42ff" y="36.0"/>
      </g>
     </g>
     <g id="text_7">
      <!-- 3.0 -->
      <defs>
       <path d="
M40.5781 39.3125
Q47.6562 37.7969 51.625 33
Q55.6094 28.2188 55.6094 21.1875
Q55.6094 10.4062 48.1875 4.48438
Q40.7656 -1.42188 27.0938 -1.42188
Q22.5156 -1.42188 17.6562 -0.515625
Q12.7969 0.390625 7.625 2.20312
L7.625 11.7188
Q11.7188 9.32812 16.5938 8.10938
Q21.4844 6.89062 26.8125 6.89062
Q36.0781 6.89062 40.9375 10.5469
Q45.7969 14.2031 45.7969 21.1875
Q45.7969 27.6406 41.2812 31.2656
Q36.7656 34.9062 28.7188 34.9062
L20.2188 34.9062
L20.2188 43.0156
L29.1094 43.0156
Q36.375 43.0156 40.2344 45.9219
Q44.0938 48.8281 44.0938 54.2969
Q44.0938 59.9062 40.1094 62.9062
Q36.1406 65.9219 28.7188 65.9219
Q24.6562 65.9219 20.0156 65.0312
Q15.375 64.1562 9.8125 62.3125
L9.8125 71.0938
Q15.4375 72.6562 20.3438 73.4375
Q25.25 74.2188 29.5938 74.2188
Q40.8281 74.2188 47.3594 69.1094
Q53.9062 64.0156 53.9062 55.3281
Q53.9062 49.2656 50.4375 45.0938
Q46.9688 40.9219 40.5781 39.3125" id="DejaVuSans-33"/>
      </defs>
      <g transform="translate(768.9140625 319.118125)scale(0.12 -0.12)">
       <use xlink:href="#DejaVuSans-33"/>
       <use x="63.623046875" xlink:href="#DejaVuSans-2e"/>
       <use x="95.41015625" xlink:href="#DejaVuSans-30"/>
      </g>
     </g>
    </g>
    <g id="text_8">
     <!-- Time (seconds) -->
     <defs>
      <path d="
M8.01562 75.875
L15.8281 75.875
Q23.1406 64.3594 26.7812 53.3125
Q30.4219 42.2812 30.4219 31.3906
Q30.4219 20.4531 26.7812 9.375
Q23.1406 -1.70312 15.8281 -13.1875
L8.01562 -13.1875
Q14.5 -2 17.7031 9.0625
Q20.9062 20.125 20.9062 31.3906
Q20.9062 42.6719 17.7031 53.6562
Q14.5 64.6562 8.01562 75.875" id="DejaVuSans-29"/>
      <path d="
M30.6094 48.3906
Q23.3906 48.3906 19.1875 42.75
Q14.9844 37.1094 14.9844 27.2969
Q14.9844 17.4844 19.1562 11.8438
Q23.3438 6.20312 30.6094 6.20312
Q37.7969 6.20312 41.9844 11.8594
Q46.1875 17.5312 46.1875 27.2969
Q46.1875 37.0156 41.9844 42.7031
Q37.7969 48.3906 30.6094 48.3906
M30.6094 56
Q42.3281 56 49.0156 48.375
Q55.7188 40.7656 55.7188 27.2969
Q55.7188 13.875 49.0156 6.21875
Q42.3281 -1.42188 30.6094 -1.42188
Q18.8438 -1.42188 12.1719 6.21875
Q5.51562 13.875 5.51562 27.2969
Q5.51562 40.7656 12.1719 48.375
Q18.8438 56 30.6094 56" id="DejaVuSans-6f"/>
      <path d="
M52 44.1875
Q55.375 50.25 60.0625 53.125
Q64.75 56 71.0938 56
Q79.6406 56 84.2812 50.0156
Q88.9219 44.0469 88.9219 33.0156
L88.9219 0
L79.8906 0
L79.8906 32.7188
Q79.8906 40.5781 77.0938 44.375
Q74.3125 48.1875 68.6094 48.1875
Q61.625 48.1875 57.5625 43.5469
Q53.5156 38.9219 53.5156 30.9062
L53.5156 0
L44.4844 0
L44.4844 32.7188
Q44.4844 40.625 41.7031 44.4062
Q38.9219 48.1875 33.1094 48.1875
Q26.2188 48.1875 22.1562 43.5312
Q18.1094 38.875 18.1094 30.9062
L18.1094 0
L9.07812 0
L9.07812 54.6875
L18.1094 54.6875
L18.1094 46.1875
Q21.1875 51.2188 25.4844 53.6094
Q29.7812 56 35.6875 56
Q41.6562 56 45.8281 52.9688
Q50 49.9531 52 44.1875" id="DejaVuSans-6d"/>
      <path d="
M54.8906 33.0156
L54.8906 0
L45.9062 0
L45.9062 32.7188
Q45.9062 40.4844 42.875 44.3281
Q39.8438 48.1875 33.7969 48.1875
Q26.5156 48.1875 22.3125 43.5469
Q18.1094 38.9219 18.1094 30.9062
L18.1094 0
L9.07812 0
L9.07812 54.6875
L18.1094 54.6875
L18.1094 46.1875
Q21.3438 51.125 25.7031 53.5625
Q30.0781 56 35.7969 56
Q45.2188 56 50.0469 50.1719
Q54.8906 44.3438 54.8906 33.0156" id="DejaVuSans-6e"/>
      <path d="
M45.4062 46.3906
L45.4062 75.9844
L54.3906 75.9844
L54.3906 0
L45.4062 0
L45.4062 8.20312
Q42.5781 3.32812 38.25 0.953125
Q33.9375 -1.42188 27.875 -1.42188
Q17.9688 -1.42188 11.7344 6.48438
Q5.51562 14.4062 5.51562 27.2969
Q5.51562 40.1875 11.7344 48.0938
Q17.9688 56 27.875 56
Q33.9375 56 38.25 53.625
Q42.5781 51.2656 45.4062 46.3906
M14.7969 27.2969
Q14.7969 17.3906 18.875 11.75
Q22.9531 6.10938 30.0781 6.10938
Q37.2031 6.10938 41.2969 11.75
Q45.4062 17.3906 45.4062 27.2969
Q45.4062 37.2031 41.2969 42.8438
Q37.2031 48.4844 30.0781 48.4844
Q22.9531 48.4844 18.875 42.8438
Q14.7969 37.2031 14.7969 27.2969" id="DejaVuSans-64"/>
      <path id="DejaVuSans-20"/>
      <path d="
M9.42188 54.6875
L18.4062 54.6875
L18.4062 0
L9.42188 0
z

M9.42188 75.9844
L18.4062 75.9844
L18.4062 64.5938
L9.42188 64.5938
z
" id="DejaVuSans-69"/>
      <path d="
M31 75.875
Q24.4688 64.6562 21.2812 53.6562
Q18.1094 42.6719 18.1094 31.3906
Q18.1094 20.125 21.3125 9.0625
Q24.5156 -2 31 -13.1875
L23.1875 -13.1875
Q15.875 -1.70312 12.2344 9.375
Q8.59375 20.4531 8.59375 31.3906
Q8.59375 42.2812 12.2031 53.3125
Q15.8281 64.3594 23.1875 75.875
z
" id="DejaVuSans-28"/>
      <path d="
M56.2031 29.5938
L56.2031 25.2031
L14.8906 25.2031
Q15.4844 15.9219 20.4844 11.0625
Q25.4844 6.20312 34.4219 6.20312
Q39.5938 6.20312 44.4531 7.46875
Q49.3125 8.73438 54.1094 11.2812
L54.1094 2.78125
Q49.2656 0.734375 44.1875 -0.34375
Q39.1094 -1.42188 33.8906 -1.42188
Q20.7969 -1.42188 13.1562 6.1875
Q5.51562 13.8125 5.51562 26.8125
Q5.51562 40.2344 12.7656 48.1094
Q20.0156 56 32.3281 56
Q43.3594 56 49.7812 48.8906
Q56.2031 41.7969 56.2031 29.5938
M47.2188 32.2344
Q47.125 39.5938 43.0938 43.9844
Q39.0625 48.3906 32.4219 48.3906
Q24.9062 48.3906 20.3906 44.1406
Q15.875 39.8906 15.1875 32.1719
z
" id="DejaVuSans-65"/>
      <path d="
M48.7812 52.5938
L48.7812 44.1875
Q44.9688 46.2969 41.1406 47.3438
Q37.3125 48.3906 33.4062 48.3906
Q24.6562 48.3906 19.8125 42.8438
Q14.9844 37.3125 14.9844 27.2969
Q14.9844 17.2812 19.8125 11.7344
Q24.6562 6.20312 33.4062 6.20312
Q37.3125 6.20312 41.1406 7.25
Q44.9688 8.29688 48.7812 10.4062
L48.7812 2.09375
Q45.0156 0.34375 40.9844 -0.53125
Q36.9688 -1.42188 32.4219 -1.42188
Q20.0625 -1.42188 12.7812 6.34375
Q5.51562 14.1094 5.51562 27.2969
Q5.51562 40.6719 12.8594 48.3281
Q20.2188 56 33.0156 56
Q37.1562 56 41.1094 55.1406
Q45.0625 54.2969 48.7812 52.5938" id="DejaVuSans-63"/>
      <path d="
M44.2812 53.0781
L44.2812 44.5781
Q40.4844 46.5312 36.375 47.5
Q32.2812 48.4844 27.875 48.4844
Q21.1875 48.4844 17.8438 46.4375
Q14.5 44.3906 14.5 40.2812
Q14.5 37.1562 16.8906 35.375
Q19.2812 33.5938 26.5156 31.9844
L29.5938 31.2969
Q39.1562 29.25 43.1875 25.5156
Q47.2188 21.7812 47.2188 15.0938
Q47.2188 7.46875 41.1875 3.01562
Q35.1562 -1.42188 24.6094 -1.42188
Q20.2188 -1.42188 15.4531 -0.5625
Q10.6875 0.296875 5.42188 2
L5.42188 11.2812
Q10.4062 8.6875 15.2344 7.39062
Q20.0625 6.10938 24.8125 6.10938
Q31.1562 6.10938 34.5625 8.28125
Q37.9844 10.4531 37.9844 14.4062
Q37.9844 18.0625 35.5156 20.0156
Q33.0625 21.9688 24.7031 23.7812
L21.5781 24.5156
Q13.2344 26.2656 9.51562 29.9062
Q5.8125 33.5469 5.8125 39.8906
Q5.8125 47.6094 11.2812 51.7969
Q16.75 56 26.8125 56
Q31.7812 56 36.1719 55.2656
Q40.5781 54.5469 44.2812 53.0781" id="DejaVuSans-73"/>
      <path d="
M-0.296875 72.9062
L61.375 72.9062
L61.375 64.5938
L35.5 64.5938
L35.5 0
L25.5938 0
L25.5938 64.5938
L-0.296875 64.5938
z
" id="DejaVuSans-54"/>
     </defs>
     <g transform="translate(397.50375 335.731875)scale(0.12 -0.12)">
      <use xlink:href="#DejaVuSans-54"/>
      <use x="57.958984375" xlink:href="#DejaVuSans-69"/>
      <use x="85.7421875" xlink:href="#DejaVuSans-6d"/>
      <use x="183.154296875" xlink:href="#DejaVuSans-65"/>
      <use x="244.677734375" xlink:href="#DejaVuSans-20"/>
      <use x="276.46484375" xlink:href="#DejaVuSans-28"/>
      <use x="315.478515625" xlink:href="#DejaVuSans-73"/>
      <use x="367.578125" xlink:href="#DejaVuSans-65"/>
      <use x="429.1015625" xlink:href="#DejaVuSans-63"/>
      <use x="484.08203125" xlink:href="#DejaVuSans-6f"/>
      <use x="545.263671875" xlink:href="#DejaVuSans-6e"/>
      <use x="608.642578125" xlink:href="#DejaVuSans-64"/>
      <use x="672.119140625" xlink:href="#DejaVuSans-73"/>
      <use x="724.21875" xlink:href="#DejaVuSans-29"/>
     </g>
    </g>
   </g>
   <g id="matplotlib.axis_2">
    <g id="ytick_1">
     <g id="line2d_23">
      <defs>
       <path d="
M0 0
L4 0" id="m728421d6d4" style="stroke:#000000;stroke-width:0.5;"/>
      </defs>
      <g>
       <use style="stroke:#000000;stroke-width:0.5;" x="108.0" xlink:href="#m728421d6d4" y="306.0"/>
      </g>
     </g>
     <g id="line2d_24">
      <defs>
       <path d="
M0 0
L-4 0" id="mcb0005524f" style="stroke:#000000;stroke-width:0.5;"/>
      </defs>
      <g>
       <use style="stroke:#000000;stroke-width:0.5;" x="777.6" xlink:href="#mcb0005524f" y="306.0"/>
      </g>
     </g>
     <g id="text_9">
      <!-- 0 -->
      <g transform="translate(97.953125 309.31125)scale(0.12 -0.12)">
       <use xlink:href="#DejaVuSans-30"/>
      </g>
     </g>
    </g>
    <g id="ytick_2">
     <g id="line2d_25">
      <g>
       <use style="stroke:#000000;stroke-width:0.5;" x="108.0" xlink:href="#m728421d6d4" y="261.0"/>
      </g>
     </g>
     <g id="line2d_26">
      <g>
       <use style="stroke:#000000;stroke-width:0.5;" x="777.6" xlink:href="#mcb0005524f" y="261.0"/>
      </g>
     </g>
     <g id="text_10">
      <!-- 10 -->
      <g transform="translate(90.845 264.31125)scale(0.12 -0.12)">
       <use xlink:href="#DejaVuSans-31"/>
       <use x="63.623046875" xlink:href="#DejaVuSans-30"/>
      </g>
     </g>
    </g>
    <g id="ytick_3">
     <g id="line2d_27">
      <g>
       <use style="stroke:#000000;stroke-width:0.5;" x="108.0" xlink:href="#m728421d6d4" y="216.0"/>
      </g>
     </g>
     <g id="line2d_28">
      <g>
       <use style="stroke:#000000;stroke-width:0.5;" x="777.6" xlink:href="#mcb0005524f" y="216.0"/>
      </g>
     </g>
     <g id="text_11">
      <!-- 20 -->
      <g transform="translate(90.40625 219.31125)scale(0.12 -0.12)">
       <use xlink:href="#DejaVuSans-32"/>
       <use x="63.623046875" xlink:href="#DejaVuSans-30"/>
      </g>
     </g>
    </g>
    <g id="ytick_4">
     <g id="line2d_29">
      <g>
       <use style="stroke:#000000;stroke-width:0.5;" x="108.0" xlink:href="#m728421d6d4" y="171.0"/>
      </g>
     </g>
     <g id="line2d_30">
      <g>
       <use style="stroke:#000000;stroke-width:0.5;" x="777.6" xlink:href="#mcb0005524f" y="171.0"/>
      </g>
     </g>
     <g id="text_12">
      <!-- 30 -->
      <g transform="translate(90.441875 174.31125)scale(0.12 -0.12)">
       <use xlink:href="#DejaVuSans-33"/>
       <use x="63.623046875" xlink:href="#DejaVuSans-30"/>
      </g>
     </g>
    </g>
    <g id="ytick_5">
     <g id="line2d_31">
      <g>
       <use style="stroke:#000000;stroke-width:0.5;" x="108.0" xlink:href="#m728421d6d4" y="126.0"/>
      </g>
     </g>
     <g id="line2d_32">
      <g>
       <use style="stroke:#000000;stroke-width:0.5;" x="777.6" xlink:href="#mcb0005524f" y="126.0"/>
      </g>
     </g>
     <g id="text_13">
      <!-- 40 -->
      <defs>
       <path d="
M37.7969 64.3125
L12.8906 25.3906
L37.7969 25.3906
z

M35.2031 72.9062
L47.6094 72.9062
L47.6094 25.3906
L58.0156 25.3906
L58.0156 17.1875
L47.6094 17.1875
L47.6094 0
L37.7969 0
L37.7969 17.1875
L4.89062 17.1875
L4.89062 26.7031
z
" id="DejaVuSans-34"/>
      </defs>
      <g transform="translate(90.11375 129.31125)scale(0.12 -0.12)">
       <use xlink:href="#DejaVuSans-34"/>
       <use x="63.623046875" xlink:href="#DejaVuSans-30"/>
      </g>
     </g>
    </g>
    <g id="ytick_6">
     <g id="line2d_33">
      <g>
       <use style="stroke:#000000;stroke-width:0.5;" x="108.0" xlink:href="#m728421d6d4" y="81.0"/>
      </g>
     </g>
     <g id="line2d_34">
      <g>
       <use style="stroke:#000000;stroke-width:0.5;" x="777.6" xlink:href="#mcb0005524f" y="81.0"/>
      </g>
     </g>
     <g id="text_14">
      <!-- 50 -->
      <g transform="translate(90.453125 84.31125)scale(0.12 -0.12)">
       <use xlink:href="#DejaVuSans-35"/>
       <use x="63.623046875" xlink:href="#DejaVuSans-30"/>
      </g>
     </g>
    </g>
    <g id="ytick_7">
     <g id="line2d_35">
      <g>
       <use style="stroke:#000000;stroke-width:0.5;" x="108.0" xlink:href="#m728421d6d4" y="36.0"/>
      </g>
     </g>
     <g id="line2d_36">
      <g>
       <use style="stroke:#000000;stroke-width:0.5;" x="777.6" xlink:href="#mcb0005524f" y="36.0"/>
      </g>
     </g>
     <g id="text_15">
      <!-- 60 -->
      <defs>
       <path d="
M33.0156 40.375
Q26.375 40.375 22.4844 35.8281
Q18.6094 31.2969 18.6094 23.3906
Q18.6094 15.5312 22.4844 10.9531
Q26.375 6.39062 33.0156 6.39062
Q39.6562 6.39062 43.5312 10.9531
Q47.4062 15.5312 47.4062 23.3906
Q47.4062 31.2969 43.5312 35.8281
Q39.6562 40.375 33.0156 40.375
M52.5938 71.2969
L52.5938 62.3125
Q48.875 64.0625 45.0938 64.9844
Q41.3125 65.9219 37.5938 65.9219
Q27.8281 65.9219 22.6719 59.3281
Q17.5312 52.7344 16.7969 39.4062
Q19.6719 43.6562 24.0156 45.9219
Q28.375 48.1875 33.5938 48.1875
Q44.5781 48.1875 50.9531 41.5156
Q57.3281 34.8594 57.3281 23.3906
Q57.3281 12.1562 50.6875 5.35938
Q44.0469 -1.42188 33.0156 -1.42188
Q20.3594 -1.42188 13.6719 8.26562
Q6.98438 17.9688 6.98438 36.375
Q6.98438 53.6562 15.1875 63.9375
Q23.3906 74.2188 37.2031 74.2188
Q40.9219 74.2188 44.7031 73.4844
Q48.4844 72.75 52.5938 71.2969" id="DejaVuSans-36"/>
      </defs>
      <g transform="translate(90.365 39.31125)scale(0.12 -0.12)">
       <use xlink:href="#DejaVuSans-36"/>
       <use x="63.623046875" xlink:href="#DejaVuSans-30"/>
      </g>
     </g>
    </g>
    <g id="text_16">
     <!-- Activity (Hz) -->
     <defs>
      <path d="
M5.51562 54.6875
L48.1875 54.6875
L48.1875 46.4844
L14.4062 7.17188
L48.1875 7.17188
L48.1875 0
L4.29688 0
L4.29688 8.20312
L38.0938 47.5156
L5.51562 47.5156
z
" id="DejaVuSans-7a"/>
      <path d="
M32.1719 -5.07812
Q28.375 -14.8438 24.75 -17.8125
Q21.1406 -20.7969 15.0938 -20.7969
L7.90625 -20.7969
L7.90625 -13.2812
L13.1875 -13.2812
Q16.8906 -13.2812 18.9375 -11.5156
Q21 -9.76562 23.4844 -3.21875
L25.0938 0.875
L2.98438 54.6875
L12.5 54.6875
L29.5938 11.9219
L46.6875 54.6875
L56.2031 54.6875
z
" id="DejaVuSans-79"/>
      <path d="
M34.1875 63.1875
L20.7969 26.9062
L47.6094 26.9062
z

M28.6094 72.9062
L39.7969 72.9062
L67.5781 0
L57.3281 0
L50.6875 18.7031
L17.8281 18.7031
L11.1875 0
L0.78125 0
z
" id="DejaVuSans-41"/>
      <path d="
M18.3125 70.2188
L18.3125 54.6875
L36.8125 54.6875
L36.8125 47.7031
L18.3125 47.7031
L18.3125 18.0156
Q18.3125 11.3281 20.1406 9.42188
Q21.9688 7.51562 27.5938 7.51562
L36.8125 7.51562
L36.8125 0
L27.5938 0
Q17.1875 0 13.2344 3.875
Q9.28125 7.76562 9.28125 18.0156
L9.28125 47.7031
L2.6875 47.7031
L2.6875 54.6875
L9.28125 54.6875
L9.28125 70.2188
z
" id="DejaVuSans-74"/>
      <path d="
M2.98438 54.6875
L12.5 54.6875
L29.5938 8.79688
L46.6875 54.6875
L56.2031 54.6875
L35.6875 0
L23.4844 0
z
" id="DejaVuSans-76"/>
      <path d="
M9.8125 72.9062
L19.6719 72.9062
L19.6719 43.0156
L55.5156 43.0156
L55.5156 72.9062
L65.375 72.9062
L65.375 0
L55.5156 0
L55.5156 34.7188
L19.6719 34.7188
L19.6719 0
L9.8125 0
z
" id="DejaVuSans-48"/>
     </defs>
     <g transform="translate(82.618125 207.1734375)rotate(-90.0)scale(0.12 -0.12)">
      <use xlink:href="#DejaVuSans-41"/>
      <use x="66.658203125" xlink:href="#DejaVuSans-63"/>
      <use x="121.638671875" xlink:href="#DejaVuSans-74"/>
      <use x="160.84765625" xlink:href="#DejaVuSans-69"/>
      <use x="188.630859375" xlink:href="#DejaVuSans-76"/>
      <use x="247.810546875" xlink:href="#DejaVuSans-69"/>
      <use x="275.59375" xlink:href="#DejaVuSans-74"/>
      <use x="314.802734375" xlink:href="#DejaVuSans-79"/>
      <use x="373.982421875" xlink:href="#DejaVuSans-20"/>
      <use x="405.76953125" xlink:href="#DejaVuSans-28"/>
      <use x="444.783203125" xlink:href="#DejaVuSans-48"/>
      <use x="519.978515625" xlink:href="#DejaVuSans-7a"/>
      <use x="572.46875" xlink:href="#DejaVuSans-29"/>
     </g>
    </g>
   </g>
   <g id="patch_3">
    <path d="
M108 36
L777.6 36" style="fill:none;stroke:#000000;"/>
   </g>
   <g id="patch_4">
    <path d="
M777.6 306
L777.6 36" style="fill:none;stroke:#000000;"/>
   </g>
   <g id="patch_5">
    <path d="
M108 306
L777.6 306" style="fill:none;stroke:#000000;"/>
   </g>
   <g id="patch_6">
    <path d="
M108 306
L108 36" style="fill:none;stroke:#000000;"/>
   </g>
   <g id="legend_1">
    <g id="line2d_37">
     <path d="
M125.28 54.8617
L145.44 54.8617" style="fill:none;stroke:#ff0000;stroke-linecap:square;"/>
    </g>
    <g id="line2d_38"/>
    <g id="text_17">
     <!-- Cognitive Cortex -->
     <defs>
      <path d="
M45.4062 27.9844
Q45.4062 37.75 41.375 43.1094
Q37.3594 48.4844 30.0781 48.4844
Q22.8594 48.4844 18.8281 43.1094
Q14.7969 37.75 14.7969 27.9844
Q14.7969 18.2656 18.8281 12.8906
Q22.8594 7.51562 30.0781 7.51562
Q37.3594 7.51562 41.375 12.8906
Q45.4062 18.2656 45.4062 27.9844
M54.3906 6.78125
Q54.3906 -7.17188 48.1875 -13.9844
Q42 -20.7969 29.2031 -20.7969
Q24.4688 -20.7969 20.2656 -20.0938
Q16.0625 -19.3906 12.1094 -17.9219
L12.1094 -9.1875
Q16.0625 -11.3281 19.9219 -12.3438
Q23.7812 -13.375 27.7812 -13.375
Q36.625 -13.375 41.0156 -8.76562
Q45.4062 -4.15625 45.4062 5.17188
L45.4062 9.625
Q42.625 4.78125 38.2812 2.39062
Q33.9375 0 27.875 0
Q17.8281 0 11.6719 7.65625
Q5.51562 15.3281 5.51562 27.9844
Q5.51562 40.6719 11.6719 48.3281
Q17.8281 56 27.875 56
Q33.9375 56 38.2812 53.6094
Q42.625 51.2188 45.4062 46.3906
L45.4062 54.6875
L54.3906 54.6875
z
" id="DejaVuSans-67"/>
      <path d="
M41.1094 46.2969
Q39.5938 47.1719 37.8125 47.5781
Q36.0312 48 33.8906 48
Q26.2656 48 22.1875 43.0469
Q18.1094 38.0938 18.1094 28.8125
L18.1094 0
L9.07812 0
L9.07812 54.6875
L18.1094 54.6875
L18.1094 46.1875
Q20.9531 51.1719 25.4844 53.5781
Q30.0312 56 36.5312 56
Q37.4531 56 38.5781 55.875
Q39.7031 55.7656 41.0625 55.5156
z
" id="DejaVuSans-72"/>
      <path d="
M54.8906 54.6875
L35.1094 28.0781
L55.9062 0
L45.3125 0
L29.3906 21.4844
L13.4844 0
L2.875 0
L24.125 28.6094
L4.6875 54.6875
L15.2812 54.6875
L29.7812 35.2031
L44.2812 54.6875
z
" id="DejaVuSans-78"/>
      <path d="
M64.4062 67.2812
L64.4062 56.8906
Q59.4219 61.5312 53.7812 63.8125
Q48.1406 66.1094 41.7969 66.1094
Q29.2969 66.1094 22.6562 58.4688
Q16.0156 50.8281 16.0156 36.375
Q16.0156 21.9688 22.6562 14.3281
Q29.2969 6.6875 41.7969 6.6875
Q48.1406 6.6875 53.7812 8.98438
Q59.4219 11.2812 64.4062 15.9219
L64.4062 5.60938
Q59.2344 2.09375 53.4375 0.328125
Q47.6562 -1.42188 41.2188 -1.42188
Q24.6562 -1.42188 15.125 8.70312
Q5.60938 18.8438 5.60938 36.375
Q5.60938 53.9531 15.125 64.0781
Q24.6562 74.2188 41.2188 74.2188
Q47.75 74.2188 53.5312 72.4844
Q59.3281 70.75 64.4062 67.2812" id="DejaVuSans-43"/>
     </defs>
     <g transform="translate(161.28 59.90175)scale(0.144 -0.144)">
      <use xlink:href="#DejaVuSans-43"/>
      <use x="69.82421875" xlink:href="#DejaVuSans-6f"/>
      <use x="131.005859375" xlink:href="#DejaVuSans-67"/>
      <use x="194.482421875" xlink:href="#DejaVuSans-6e"/>
      <use x="257.861328125" xlink:href="#DejaVuSans-69"/>
      <use x="285.64453125" xlink:href="#DejaVuSans-74"/>
      <use x="324.853515625" xlink:href="#DejaVuSans-69"/>
      <use x="352.63671875" xlink:href="#DejaVuSans-76"/>
      <use x="411.81640625" xlink:href="#DejaVuSans-65"/>
      <use x="473.33984375" xlink:href="#DejaVuSans-20"/>
      <use x="505.126953125" xlink:href="#DejaVuSans-43"/>
      <use x="574.951171875" xlink:href="#DejaVuSans-6f"/>
      <use x="636.1328125" xlink:href="#DejaVuSans-72"/>
      <use x="677.24609375" xlink:href="#DejaVuSans-74"/>
      <use x="716.455078125" xlink:href="#DejaVuSans-65"/>
      <use x="776.228515625" xlink:href="#DejaVuSans-78"/>
     </g>
    </g>
    <g id="line2d_39">
     <path d="
M125.28 75.9982
L145.44 75.9982" style="fill:none;stroke:#0000ff;stroke-linecap:square;"/>
    </g>
    <g id="line2d_40"/>
    <g id="text_18">
     <!-- Motor Cortex -->
     <defs>
      <path d="
M9.8125 72.9062
L24.5156 72.9062
L43.1094 23.2969
L61.8125 72.9062
L76.5156 72.9062
L76.5156 0
L66.8906 0
L66.8906 64.0156
L48.0938 14.0156
L38.1875 14.0156
L19.3906 64.0156
L19.3906 0
L9.8125 0
z
" id="DejaVuSans-4d"/>
     </defs>
     <g transform="translate(161.28 81.03825)scale(0.144 -0.144)">
      <use xlink:href="#DejaVuSans-4d"/>
      <use x="86.279296875" xlink:href="#DejaVuSans-6f"/>
      <use x="147.4609375" xlink:href="#DejaVuSans-74"/>
      <use x="186.669921875" xlink:href="#DejaVuSans-6f"/>
      <use x="247.8515625" xlink:href="#DejaVuSans-72"/>
      <use x="288.96484375" xlink:href="#DejaVuSans-20"/>
      <use x="320.751953125" xlink:href="#DejaVuSans-43"/>
      <use x="390.576171875" xlink:href="#DejaVuSans-6f"/>
      <use x="451.7578125" xlink:href="#DejaVuSans-72"/>
      <use x="492.87109375" xlink:href="#DejaVuSans-74"/>
      <use x="532.080078125" xlink:href="#DejaVuSans-65"/>
      <use x="591.853515625" xlink:href="#DejaVuSans-78"/>
     </g>
    </g>
   </g>
  </g>
 </g>
 <defs>
  <clipPath id="pf8ef257490">
   <rect height="270.0" width="669.6" x="108.0" y="36.0"/>
  </clipPath>
 </defs>
</svg>
